refGRF
version=1
nRows=12
nColumns=19
inDegrees=no
endheader
time	ground_force_r_vx	ground_force_r_vy	ground_force_r_vz	ground_force_l_vx	ground_force_l_vy	ground_force_l_vz	ground_force_r_px	ground_force_r_py	ground_force_r_pz	ground_force_l_px	ground_force_l_py	ground_force_l_pz	ground_torque_r_x	ground_torque_r_y	ground_torque_r_z	ground_torque_l_x	ground_torque_l_y	ground_torque_l_z
      0.75400000	      0.00000000	      0.00000000	      0.00000000	    101.30271039	    155.28443451	    -23.55765176	     -0.90400000	      0.00000000	      0.60100000	      2.80422699	      0.00000000	      0.44470246	     -0.00000000	     -0.00000000	      0.00000000	     -0.11501052	     -0.14803066	      0.03328766
      0.75500000	      0.00000000	      0.00000000	      0.00000000	     95.63039891	    138.11410470	    -23.48399020	     -0.90400000	      0.00000000	      0.60100000	      2.80408943	      0.00000000	      0.44517516	     -0.00000000	     -0.00000000	      0.00000000	     -0.13077928	     -0.14892044	      0.04118846
      0.75600000	      0.00000000	      0.00000000	      0.00000000	     90.05822912	    121.95974195	    -23.30352549	     -0.90400000	      0.00000000	      0.60100000	      2.80384662	      0.00000000	      0.44582734	     -0.00000000	     -0.00000000	      0.00000000	     -0.15903378	     -0.16876345	      0.05259383
      0.75700000	     -0.00000000	     -0.00000000	      0.00000000	     84.36625267	    106.90043629	    -22.95260998	     -0.90400000	      0.00000000	      0.60100000	      2.80356605	      0.00000000	      0.44667615	     -0.00000000	     -0.00000000	      0.00000000	     -0.19755674	     -0.20520212	      0.06717178
      0.75800000	     -0.00000000	     -0.00000000	     -0.00000000	     78.38772892	     93.00254316	    -22.38280319	     -0.90400000	      0.00000000	      0.60100000	      2.80334994	      0.00000000	      0.44775541	     -0.00000000	     -0.00000000	      0.00000000	     -0.24289940	     -0.25428588	      0.08418519
      0.75900000	     -0.00000000	     -0.00000000	     -0.00000000	     72.03242187	     80.31092848	    -21.56545952	     -0.90400000	      0.00000000	      0.60100000	      2.80329626	      0.00000000	      0.44914537	     -0.00000000	     -0.00000000	      0.00000000	     -0.29131047	     -0.31151100	      0.10276976
      0.76000000	     -0.00000000	     -0.00000000	     -0.00000000	     65.27197886	     68.82865873	    -20.48298747	     -0.90400000	      0.00000000	      0.60100000	      2.80335005	      0.00000000	      0.45110702	     -0.00000000	     -0.00000000	      0.00000000	     -0.33890852	     -0.37225901	      0.12188056
      0.76100000	     -0.00000000	     -0.00000000	     -0.00000000	     58.10859329	     58.46986749	    -19.11547139	     -0.90400000	      0.00000000	      0.60100000	      2.80303415	      0.00000000	      0.45428656	     -0.00000000	     -0.00000000	     -0.00000000	     -0.38068908	     -0.43010468	      0.13971787
      0.76200000	     -0.00000000	     -0.00000000	     -0.00000000	     50.59188304	     49.09055169	    -17.45392694	     -0.90400000	      0.00000000	      0.60100000	      2.80161201	      0.00000000	      0.45950045	     -0.00000000	      0.00000000	     -0.00000000	     -0.41123390	     -0.47739199	      0.15402403
      0.76300000	     -0.00000000	     -0.00000000	     -0.00000000	     42.84529793	     40.55936071	    -15.51956004	     -0.90400000	      0.00000000	      0.60100000	      2.79842833	      0.00000000	      0.46736283	      0.00000000	      0.00000000	     -0.00000000	     -0.42628570	     -0.50751107	      0.16283049
      0.76400000	     -0.00000000	     -0.00000000	     -0.00000000	     35.06130974	     32.79192922	    -13.36823103	     -0.90400000	      0.00000000	      0.60100000	      2.79310064	      0.00000000	      0.47809713	      0.00000000	      0.00000000	     -0.00000000	     -0.42359931	     -0.51627000	      0.16489848
      0.76500000	     -0.00000000	     -0.00000000	     -0.00000000	     27.47641483	     25.75556471	    -11.08417062	     -0.90400000	      0.00000000	      0.60100000	      2.78558085	      0.00000000	      0.49150259	      0.00000000	      0.00000000	     -0.00000000	     -0.40313334	     -0.50235024	      0.15986889
